<?xml version="1.0" encoding="utf-8"?>
<!-- Generator: Adobe Illustrator 22.0.1, SVG Export Plug-In . SVG Version: 6.00 Build 0)  -->
<svg version="1.1" id="Layer_1" xmlns="http://www.w3.org/2000/svg" xmlns:xlink="http://www.w3.org/1999/xlink" x="0px" y="0px"
	 viewBox="0 0 1080 1080" style="enable-background:new 0 0 1080 1080;" xml:space="preserve">
<g>
	<g>
		<g>
			<path d="M488,466.6h-60.4v61.9h-37.5V373.1h103.9V402h-66.5v35.8H488V466.6z"/>
			<path d="M553.3,499.7h65.2v28.8H515.8V373.1h37.5V499.7z"/>
			<path d="M730.7,499.5h-51.3l-9,29h-40l57-155.4h35.2L780,528.5h-40.2L730.7,499.5z M688.3,470.6h33.4L705,416.7L688.3,470.6z"/>
			<path d="M877.6,487.2c0-5.5-1.9-9.7-5.8-12.8c-3.9-3.1-10.7-6.2-20.4-9.5c-9.7-3.3-17.7-6.4-23.9-9.5
				c-20.1-9.9-30.2-23.5-30.2-40.8c0-8.6,2.5-16.2,7.5-22.8c5-6.6,12.1-11.7,21.3-15.4c9.2-3.7,19.5-5.5,30.9-5.5
				c11.2,0,21.2,2,30,6c8.9,4,15.7,9.7,20.6,17c4.9,7.4,7.4,15.8,7.4,25.2h-37.4c0-6.3-1.9-11.2-5.8-14.7c-3.9-3.5-9.1-5.2-15.7-5.2
				c-6.7,0-12,1.5-15.8,4.4c-3.9,3-5.8,6.7-5.8,11.3c0,4,2.1,7.6,6.4,10.8c4.3,3.2,11.8,6.6,22.5,10c10.7,3.5,19.6,7.2,26.5,11.2
				c16.8,9.7,25.2,23,25.2,40c0,13.6-5.1,24.3-15.4,32c-10.2,7.8-24.3,11.6-42.2,11.6c-12.6,0-24-2.3-34.2-6.8
				c-10.2-4.5-17.9-10.7-23.1-18.6c-5.2-7.9-7.7-16.9-7.7-27.2h37.6c0,8.3,2.1,14.5,6.5,18.4c4.3,3.9,11.3,5.9,21,5.9
				c6.2,0,11.1-1.3,14.7-4C875.8,495.8,877.6,492,877.6,487.2z"/>
			<path d="M1070.2,528.5H1033v-64.9h-55.2v64.9h-37.5V373.1h37.5v61.7h55.2v-61.7h37.2V528.5z"/>
		</g>
		<g>
			<path d="M629.3,646.6h-60.4v61.9h-37.5V553.1h103.9V582h-66.5v35.8h60.4V646.6z"/>
			<path d="M780.8,708.5h-37.2l-55.1-96.7v96.7H651V553.1h37.5l55,96.7v-96.7h37.4V708.5z"/>
			<path d="M926.4,582h-46.6v126.5h-37.5V582h-45.8v-28.9h129.9V582z"/>
			<path d="M1072,708.5h-37.2l-55.1-96.7v96.7h-37.5V553.1h37.5l55,96.7v-96.7h37.4V708.5z"/>
			<path d="M502.9,588.8c-6.2-11.3-14.7-20.1-25.7-26.4c-11-6.2-23.3-9.3-37-9.3h-50.1v155.4h51.1c13.4-0.1,25.6-3.3,36.6-9.7
				c10.9-6.4,19.4-15.2,25.4-26.5c6-11.3,9-24,9-38.3V627C512.2,612.9,509.1,600.2,502.9,588.8z M468.3,616.4l-21.6,27h13.1
				l-58.5,53.9l20.8-34.7h-13.9l21.6-30.8h-11.6l57.8-54.7l-21.7,39.3L468.3,616.4z"/>
		</g>
	</g>
	<path d="M369.8,487.9l-24.7-11.8l21.1-98.6l-48.5,116.2l15.3,7.1l-9.3,29.5c-2.9-6-6.9-10.7-11.5-13.3l-1.9-86.5
		c-0.1-3.8-1.7-7-3.5-10c-15.4-25.2-60.9-46.7-118-46.7c-57.3,0-103.1,21.4-118.1,47c-1.7,2.9-3.2,6.1-3.3,9.7l-1.9,86.5
		c-4.7,2.6-8.7,7.3-11.5,13.3l-9.3-29.5l15.3-7.1L11.6,377.6l21.1,98.6L8,487.9l41.3,62.8c0,0.6-0.1,1.3-0.1,1.9
		c0,15.4,6.1,28.6,14.8,34.6l-1.4,62.1c0,0,0,0.1,0,0.1l0,0.3c-0.2,8.8,5.4,19,12.5,22.9l52.1,28.7c7.1,3.9,19.4,7.4,27.3,7.4h68.7
		c7.9,0,20.2-3.5,27.3-7.4l52.1-28.8c7.1-3.9,12.7-14.3,12.5-23.1l-1.4-62.2c8.7-5.9,14.8-19.2,14.8-34.6c0-0.6,0-1.3-0.1-1.9
		L369.8,487.9z M271.9,513.9l0.8,38.2l-42.5,10.3l-20.5,4.9l-6.3-13.8L271.9,513.9z M105.8,513.9l68.4,39.6l-6.3,13.8l-63-15.2
		L105.8,513.9z M293.4,652.6l-51.9,28.7c-4.5,2.5-13.7,5-18.3,5h-68.7c-4.5,0-13.8-2.5-18.3-5l-52.1-28.7c-0.3-0.3-1.2-1.8-1.3-2.6
		l1.4-64.5l23.3,21.7l81.4-24.8l81.4,24.8l23.3-21.7l1.4,64.2C294.8,650.5,294,652,293.4,652.6z"/>
</g>
</svg>
